<svg xmlns="http://www.w3.org/2000/svg" xmlns:xlink="http://www.w3.org/1999/xlink" width="600"
   height="600" viewBox="0 0 600 600">
   <defs>
      <linearGradient id="a">
         <stop offset="0" style="stop-color:#0a98e2;stop-opacity:1" />
         <stop offset=".829" style="stop-color:#5737a6;stop-opacity:1" />
      </linearGradient>
      <linearGradient xlink:href="#a" id="b" x1="511.505" x2="511.505" y1="220.686" y2="803.981"
         gradientTransform="translate(-211.505 -212.334)" gradientUnits="userSpaceOnUse" />
   </defs>
   <path fill="#3761ba" fill-rule="evenodd"
      d="M265.996 34.224c-8.883 1.91-19.822 7.201-25.255 12.216-4.034 3.723-4.457 3.873-9.689 3.44-5.02-.417-5.713-.21-8.432 2.508-5.47 5.47-6.016 14.875-1.242 21.332 1.74 2.356 1.923 3.602 1.319 9.032l-.701 6.3-13.5.281c-7.425.155-16.425.91-20 1.677l-6.5 1.395 12.5.051c15.426.062 24.62 1.048 26.069 2.793 1.698 2.047.39 3.121-4.737 3.89-7.154 1.073-21.597 6.066-30.947 10.7-4.614 2.285-8.266 4.28-8.116 4.43s4.089-1.086 8.752-2.747c8.369-2.98 20.974-6.03 30.229-7.318 4.486-.624 4.75-.533 4.747 1.651 0 1.673-1.313 3.13-4.75 5.278-5.233 3.27-21.184 18.676-23.16 22.371-.722 1.347 2.223-.666 6.952-4.752 8.853-7.65 19.652-14.727 20.77-13.61.38.38.672 13.141.65 28.357-.059 39.027-2.953 57.708-12.4 80.035-10.367 24.498-14.06 41.195-14.06 63.572v13.241l-4.856 8.08c-9.702 16.143-16.65 35.19-19.782 54.227-1.914 11.642-1.304 36.656 1.171 48.012 3.03 13.902 9.212 29.386 15.381 38.527 1.66 2.46 2.66 4.473 2.22 4.473s-3.313-.505-6.384-1.12c-15.22-3.058-31.33 6.047-35.005 19.783-1.372 5.13-.606 4.856-17.745 6.331-19.44 1.673-74.557 7.838-94.5 10.57-21.886 3-28.372 4.368-26.268 5.546 2.361 1.321 59.815 2.835 135.047 3.557 48.731.468 68.685.978 68.457 1.747-.177.597-6.603 4.26-14.279 8.138-21.76 10.996-44.895 18.023-90.456 27.478-39.505 8.198-54.263 13.181-55.672 18.797-.343 1.365-.173 3.196.377 4.068 3.902 6.186 45.442 9.783 93.628 8.107 82.71-2.878 136.926-15.9 170.448-40.943 7.27-5.43 17.74-15.655 23.256-22.71l2.463-3.15 88-1.13c101.985-1.31 159.045-2.715 161.285-3.969 2.07-1.158-4.397-2.47-25.285-5.126-13.322-1.694-122.783-12.96-126.015-12.97-.56-.003-1.798-2.208-2.755-4.9-.957-2.694-3.757-7.142-6.223-9.886-7.665-8.524-17.392-11.493-29.23-8.92l-6.224 1.352 1.888-3.075c25.677-41.834 24.89-97.096-2.021-142.032l-5.966-9.96.65-7.169c1.492-16.468-3.73-44.558-11.622-62.523-8.344-18.992-11.766-32.408-13.963-54.747-1.138-11.568-1.284-50.518-.211-56.518l.692-3.874 9 6.042c4.95 3.324 11.362 8.37 14.25 11.214s5.25 4.704 5.25 4.133c0-1.794-16.572-18.542-22.925-23.169-4.357-3.172-6.076-5.067-6.076-6.698 0-1.25.6-2.274 1.331-2.274 4.331 0 23.608 4.236 30.755 6.76 4.628 1.632 9.314 3.28 10.414 3.658 1.1.38-.925-.892-4.5-2.824-9.293-5.024-21.212-9.53-30.486-11.525-6.617-1.424-8.014-2.057-8.014-3.633 0-2.744 7.558-3.662 26.415-3.208 8.885.213 14.181.028 12.5-.439-7.598-2.109-22.793-3.904-30.908-3.65l-8.994.28-.687-4.81c-.378-2.645-.93-5.44-1.225-6.21s.56-3.02 1.904-5c2.833-4.174 3.989-9.183 3.122-13.519-1.483-7.417-8.506-12.163-14.767-9.98-2.85.993-3.425.772-7.628-2.928-5.328-4.69-14.294-9.258-22.731-11.58-8.644-2.38-45.224-2.935-55-.834m110.019 107.74c-.848 10.652.883 35.128 3.514 49.702 2.179 12.065 4.137 18.216 10.889 34.197 7.748 18.34 12.062 39.661 12.072 59.672.006 11.244.045 11.433 3.538 17.183 8.932 14.704 15.634 31.802 19.58 49.948 1.256 5.775 2.335 10.603 2.398 10.73.064.126 19.213-.64 42.553-1.705l56.687-2.584 14.25-.649-.011-5.146c-.006-2.83-.283-6.794-.617-8.808l-.605-3.66-10.134-.608c-5.573-.333-23.858-1.283-40.633-2.11-16.775-.828-35-1.819-40.5-2.203l-10-.698 6.5-.686c3.575-.377 21.125-1.43 39-2.343 17.875-.912 37.51-1.966 43.635-2.344l11.136-.686-2.79-13.5c-9.441-45.694-30.741-85.343-64.332-119.754-26.97-27.628-54.998-46.288-90.313-60.126l-5.165-2.023zm-180.52-2.477c-44.72 20.187-82.868 52.323-109.426 92.18-17.767 26.663-32.146 61.117-36.138 86.59l-.64 4.091 15.43.603c35.493 1.386 77.228 4.184 73.275 4.912-2.2.406-23.35 1.692-47 2.86-23.65 1.166-43.204 2.321-43.453 2.567-.676.668-1.938 13.071-1.997 19.626l-.05 5.75 3.25.022c1.787.013 18.55.677 37.25 1.477s42.438 1.761 52.75 2.136l18.75.681v-2.408c.004-4.555 5.02-23.112 8.99-33.252 2.188-5.586 6.635-14.75 9.882-20.364 5.864-10.138 5.9-10.25 5.389-16.625-1.31-16.323 4.003-44.01 12.27-63.939 10.75-25.916 13.427-39.196 14.205-70.478.44-17.683.296-21.243-.854-21.21-.76.023-6.107 2.174-11.882 4.781m82.5 117.594c-9.16 1.795-15.24 3.92-25 8.734-12.117 5.976-14.828 8.496-5.107 4.746 27.08-10.446 61.829-10.352 88.053.241 12.707 5.132 8.12 1.19-7.252-6.235-4.57-2.206-11.77-4.908-16-6.004-10.025-2.595-25.617-3.26-34.694-1.482m-168.5 112.197c-16.776.733-38.13 1.683-47.458 2.11l-16.956.778.26 5.5c.322 6.856 1.974 22.155 2.442 22.622.191.192 21.917 1.24 48.28 2.328 26.362 1.09 50.979 2.224 54.703 2.524l6.772.544-.696-2.759c-.382-1.517-.73-10.07-.771-19.007l-.076-16.247-8 .136c-4.4.076-21.725.737-38.5 1.471m319 12.748c0 7.9-.295 16.516-.656 19.15l-.657 4.79 12.907-.68c7.098-.373 32.197-1.544 55.775-2.602s43.003-2.057 43.167-2.22c.52-.522 2.464-19.537 2.464-24.114v-4.394l-20.25-.706c-11.138-.388-33.75-1.349-50.25-2.136s-32.812-1.435-36.25-1.439l-6.25-.009zm-2.533 30.266c-1.374 6.235-4.927 18.098-6.65 22.207-1 2.383-1.817 4.66-1.817 5.061s2.234 1.301 4.965 2 6.87 2.653 9.199 4.34l4.233 3.066 37.052-1.674c20.378-.92 41.387-1.949 46.686-2.285l9.635-.61 2.258-7.616c4.187-14.125 5.843-22.236 4.61-22.593-.625-.182-22.513-1.064-48.638-1.96-26.125-.898-50.515-1.897-54.2-2.22l-6.7-.59zm-335.968.38c-22 .945-40.065 1.78-40.145 1.856-.203.193 4.027 16.466 6.076 23.37.935 3.152 2.06 5.953 2.497 6.224.44.271 16.722 1.166 36.185 1.99 19.464.822 39.663 1.765 44.888 2.095 9.077.574 9.652.487 12.905-1.94 1.873-1.4 5.698-3.29 8.5-4.205 2.802-.914 5.384-1.824 5.737-2.02.352-.199-.41-2.943-1.692-6.1s-3.362-9.686-4.62-14.508l-2.288-8.768-14.021.144c-7.711.08-32.021.917-54.022 1.862m352.5 43.03c0 .465.394 1.09.875 1.386.48.297 2.023 2.968 3.428 5.935l2.555 5.395 6.82.701c3.753.386 18.073 2.015 31.823 3.62s25.72 2.921 26.6 2.923c1.363.003 4.233-5.24 8.55-15.622.508-1.22-4.915-1.623-45.65-3.379-12.925-.557-26.087-1.192-29.25-1.409s-5.75-.016-5.75.45m-343 1.08c-10.726.447-23.185 1.093-27.687 1.433l-8.187.62 3.491 7.665c1.92 4.217 3.837 8.014 4.26 8.44.707.711 12.817-.472 49.729-4.859l14.106-1.677 2.873-5.619c1.58-3.09 3.032-5.956 3.227-6.369.42-.89-14.941-.756-41.813.366"
      style="fill:url(#b)" />
</svg>